# xmcd
#
# Track frame offsets: 
#        150
#        11913
#        23872
#        39938
#        49758
#        59642
#        69405
#        81129
#        94155
#        104598
#        119249
#        129437
#        139905
#        152096
#        162598
#        176179
#        185392
#        200177
#        211815
#        225901
#        235804
#        246845
#        255501
#        267562
#        279926
#        289877
#        302008
#        316803
#
# Disc length: 4383 seconds
#
# Revision: 4
# Processed by: cddbd v1.5.2PL0 Copyright (c) Steve Scherf et al.
# Submitted via: ExactAudioCopyFreeDBPlugin 1.0
#
DISCID=9f111d1c
DTITLE=Various Artist - The Complete Goldwax Singles, 1962-1970
DYEAR=2010
DGENRE=Rhythm and Blues
TTITLE0=Ben Atkins and The Nomads - Love is a Beautiful Thing
TTITLE1=Ben Atkins and The Nomads - Love is a Beautiful Thing (instrumen
TTITLE1=tal)
TTITLE2=Spencer Wiggins - Once in a While (Is Better Than Never at All
TTITLE2=)
TTITLE3=Spencer Wiggins - He's Too Old
TTITLE4=Kathy Davis - Teach Me How to Let You Go
TTITLE5=Kathy Davis - A Girl in Love
TTITLE6=Carmol Taylor - Love Me Tonight
TTITLE7=Carmol Taylor - Sugar Creek Bottom
TTITLE8=James Carr - Freedom Train
TTITLE9=James Carr - That's the Way Love Turned Out for Me
TTITLE10=Carmol Taylor - The Train Never Stops at Our Town
TTITLE11=Carmol Taylor - Another Man's Shoes
TTITLE12=Willie Walker - From Warm to Cool to Cold
TTITLE13=Willie Walker - A Lucky Loser
TTITLE14=Spencer Wiggins - I Never Loved a Woman (The Way I Love You)
TTITLE15=Spencer Wiggins - Soul City USA
TTITLE16=James Carr - To Love Somebody
TTITLE17=James Carr - These Ain't Raindrops
TTITLE18=The Ovations - Happiness
TTITLE19=The Ovations - Rockin' Chair
TTITLE20=William Morgan and The C's - Medicine Man
TTITLE21=William Morgan and The C's - You've Gotta Be Different
TTITLE22=The Ovations - You Had Your Choice
TTITLE23=The Ovations - I'm Living Good (with spoken intro)
TTITLE24=James Carr - Row, Row Your Boat
TTITLE25=James Carr - Everybody Needs Somebody
TTITLE26=Percy Milem - I Slipped a Little
TTITLE27=Percy Milem - I'm Crying Over You
EXTD=
EXTT0=
EXTT1=
EXTT2=
EXTT3=
EXTT4=
EXTT5=
EXTT6=
EXTT7=
EXTT8=
EXTT9=
EXTT10=
EXTT11=
EXTT12=
EXTT13=
EXTT14=
EXTT15=
EXTT16=
EXTT17=
EXTT18=
EXTT19=
EXTT20=
EXTT21=
EXTT22=
EXTT23=
EXTT24=
EXTT25=
EXTT26=
EXTT27=
PLAYORDER=
